<svg width="72" height="71" viewBox="0 0 72 71" fill="none" xmlns="http://www.w3.org/2000/svg">
<path d="M63.4281 37.7766C63.5042 30.14 57.7495 21.7533 51.101 16.3637C44.3788 10.9065 35.0368 7.12459 27.6336 8.72832C20.5862 10.2509 18.2875 16.0021 17.1158 18.9317C15.696 22.4692 15.8112 26.7192 16.0289 35.2082C16.0289 35.2082 16.1245 38.7831 17.4241 45.6397C18.4443 51.0197 19.1995 52.5582 20.5084 53.601C22.1051 54.8705 23.8994 54.9081 28.226 54.7891C35.4302 54.5903 39.0305 54.4929 41.0872 54.1687C47.6076 53.1484 50.9538 52.6251 54.3938 50.6413C57.3813 48.9099 63.3482 45.4707 63.4281 37.7766Z" fill="black" fill-opacity="0.2"/>
</svg>
